<svg width="172" height="61" viewBox="0 0 172 61" fill="none" xmlns="http://www.w3.org/2000/svg">
    <path
        d="M24.9178 29.3939H11.8347L9.73742 35.5859H0.798968L13.4826 0.531228H23.3698L36.0534 35.5859H27.0151L24.9178 29.3939ZM22.7206 22.8025L18.3763 9.96903L14.0818 22.8025H22.7206ZM53.0467 0.531228C56.7419 0.531228 59.9711 1.26361 62.7342 2.72839C65.4973 4.19316 67.6279 6.25716 69.1259 8.92039C70.6573 11.5503 71.423 14.5964 71.423 18.0586C71.423 21.4875 70.6573 24.5336 69.1259 27.1968C67.6279 29.86 65.4806 31.924 62.6842 33.3888C59.9211 34.8536 56.7086 35.5859 53.0467 35.5859H39.9137V0.531228H53.0467ZM52.4974 28.1955C55.7266 28.1955 58.24 27.3133 60.0377 25.5489C61.8353 23.7845 62.7342 21.2877 62.7342 18.0586C62.7342 14.8294 61.8353 12.316 60.0377 10.5183C58.24 8.72065 55.7266 7.82181 52.4974 7.82181H48.4526V28.1955H52.4974ZM115.894 0.531228V35.5859H107.355V14.5631L99.5148 35.5859H92.6237L84.7339 14.5132V35.5859H76.1949V0.531228H86.2819L96.1192 24.7999L105.857 0.531228H115.894ZM130.573 0.531228V35.5859H122.034V0.531228H130.573ZM168.121 35.5859H159.582L145.3 13.9639V35.5859H136.761V0.531228H145.3L159.582 22.2532V0.531228H168.121V35.5859Z"
        fill="white" />
    <path
        d="M7.63181 58.757C6.36308 58.757 5.19791 58.4593 4.13632 57.8637C3.07473 57.2682 2.23323 56.4461 1.61181 55.3975C0.990387 54.3359 0.679677 53.1384 0.679677 51.8049C0.679677 50.4844 0.990387 49.2998 1.61181 48.2512C2.23323 47.1896 3.07473 46.361 4.13632 45.7655C5.19791 45.17 6.36308 44.8722 7.63181 44.8722C8.91348 44.8722 10.0786 45.17 11.1273 45.7655C12.1889 46.361 13.0239 47.1896 13.6324 48.2512C14.2538 49.2998 14.5645 50.4844 14.5645 51.8049C14.5645 53.1384 14.2538 54.3359 13.6324 55.3975C13.0239 56.4461 12.1889 57.2682 11.1273 57.8637C10.0657 58.4593 8.90054 58.757 7.63181 58.757ZM7.63181 56.3296C8.44742 56.3296 9.16594 56.1484 9.78735 55.7859C10.4088 55.4104 10.8943 54.8796 11.2438 54.1935C11.5934 53.5073 11.7681 52.7111 11.7681 51.8049C11.7681 50.8987 11.5934 50.1089 11.2438 49.4357C10.8943 48.7496 10.4088 48.2253 9.78735 47.8628C9.16594 47.5003 8.44742 47.319 7.63181 47.319C6.81619 47.319 6.0912 47.5003 5.45684 47.8628C4.83542 48.2253 4.34994 48.7496 4.00039 49.4357C3.65084 50.1089 3.47606 50.8987 3.47606 51.8049C3.47606 52.7111 3.65084 53.5073 4.00039 54.1935C4.34994 54.8796 4.83542 55.4104 5.45684 55.7859C6.0912 56.1484 6.81619 56.3296 7.63181 56.3296ZM22.5489 47.7074C23.8306 47.7074 24.8663 48.1152 25.656 48.9308C26.4457 49.7335 26.8406 50.8598 26.8406 52.3098V58.6211H24.1219V52.6788C24.1219 51.8243 23.9083 51.1705 23.481 50.7174C23.0538 50.2514 22.4712 50.0183 21.7333 50.0183C20.9824 50.0183 20.3869 50.2514 19.9467 50.7174C19.5195 51.1705 19.3059 51.8243 19.3059 52.6788V58.6211H16.5872V47.8628H19.3059V49.2027C19.6684 48.7366 20.128 48.3741 20.6846 48.1152C21.2543 47.8434 21.8757 47.7074 22.5489 47.7074ZM43.2774 45.0664V47.2608H39.6654V58.6211H36.9467V47.2608H33.3347V45.0664H43.2774ZM51.3199 47.7074C52.1355 47.7074 52.8605 47.8887 53.4949 48.2512C54.1292 48.6007 54.6212 49.125 54.9707 49.8241C55.3332 50.5103 55.5145 51.3388 55.5145 52.3098V58.6211H52.7958V52.6788C52.7958 51.8243 52.5821 51.1705 52.1549 50.7174C51.7277 50.2514 51.1451 50.0183 50.4072 50.0183C49.6563 50.0183 49.0608 50.2514 48.6206 50.7174C48.1934 51.1705 47.9798 51.8243 47.9798 52.6788V58.6211H45.2611V44.2508H47.9798V49.2027C48.3293 48.7366 48.7954 48.3741 49.378 48.1152C49.9605 47.8434 50.6078 47.7074 51.3199 47.7074ZM68.1008 53.0089C68.1008 53.3973 68.0749 53.7468 68.0231 54.0575H60.1583C60.223 54.8343 60.4949 55.4428 60.9739 55.883C61.4529 56.3231 62.042 56.5432 62.741 56.5432C63.7509 56.5432 64.4694 56.1095 64.8966 55.2421H67.8289C67.5182 56.2778 66.9227 57.1323 66.0423 57.8055C65.162 58.4657 64.081 58.7959 62.7993 58.7959C61.7636 58.7959 60.8315 58.5693 60.0029 58.1162C59.1873 57.6501 58.5465 56.9963 58.0804 56.1548C57.6273 55.3133 57.4007 54.3424 57.4007 53.2419C57.4007 52.1286 57.6273 51.1511 58.0804 50.3096C58.5335 49.4681 59.1679 48.8208 59.9835 48.3677C60.7991 47.9146 61.7377 47.688 62.7993 47.688C63.8221 47.688 64.7348 47.9081 65.5374 48.3483C66.353 48.7884 66.9809 49.4163 67.4211 50.2319C67.8742 51.0346 68.1008 51.9603 68.1008 53.0089ZM65.285 52.2321C65.272 51.533 65.0196 50.9763 64.5276 50.5621C64.0357 50.1348 63.4337 49.9212 62.7216 49.9212C62.0484 49.9212 61.4788 50.1284 61.0127 50.5426C60.5596 50.944 60.2813 51.5071 60.1777 52.2321H65.285ZM84.1503 49.1444C83.8396 48.5748 83.4123 48.1411 82.8686 47.8434C82.3249 47.5456 81.6905 47.3967 80.9655 47.3967C80.1628 47.3967 79.4508 47.578 78.8294 47.9404C78.208 48.3029 77.7225 48.8208 77.3729 49.494C77.0234 50.1672 76.8486 50.944 76.8486 51.8243C76.8486 52.7306 77.0234 53.5203 77.3729 54.1935C77.7354 54.8667 78.2338 55.3845 78.8682 55.747C79.5026 56.1095 80.2405 56.2908 81.082 56.2908C82.1177 56.2908 82.9657 56.0189 83.626 55.4752C84.2862 54.9185 84.7199 54.1482 84.9271 53.1643H80.2664V51.0864H87.6069V53.4555C87.4257 54.4006 87.0373 55.2745 86.4418 56.0772C85.8462 56.8798 85.0759 57.5271 84.1309 58.0191C83.1987 58.4981 82.1501 58.7376 80.9849 58.7376C79.6774 58.7376 78.4928 58.4463 77.4312 57.8637C76.3825 57.2682 75.554 56.4461 74.9455 55.3975C74.35 54.3488 74.0522 53.1578 74.0522 51.8243C74.0522 50.4909 74.35 49.2998 74.9455 48.2512C75.554 47.1896 76.3825 46.3675 77.4312 45.7849C78.4928 45.1894 79.6709 44.8916 80.9655 44.8916C82.4932 44.8916 83.8201 45.2671 84.9465 46.0179C86.0728 46.7559 86.8496 47.798 87.2768 49.1444H84.1503ZM94.3955 58.7959C93.3598 58.7959 92.4277 58.5693 91.5991 58.1162C90.7706 57.6501 90.1168 56.9963 89.6378 56.1548C89.1717 55.3133 88.9387 54.3424 88.9387 53.2419C88.9387 52.1415 89.1782 51.1705 89.6572 50.329C90.1491 49.4875 90.8159 48.8402 91.6574 48.3871C92.4989 47.921 93.4375 47.688 94.4732 47.688C95.5089 47.688 96.4475 47.921 97.289 48.3871C98.1305 48.8402 98.7908 49.4875 99.2698 50.329C99.7617 51.1705 100.008 52.1415 100.008 53.2419C100.008 54.3424 99.7553 55.3133 99.2503 56.1548C98.7584 56.9963 98.0852 57.6501 97.2307 58.1162C96.3892 58.5693 95.4442 58.7959 94.3955 58.7959ZM94.3955 56.4267C94.8875 56.4267 95.3471 56.3102 95.7743 56.0772C96.2145 55.8312 96.564 55.4687 96.8229 54.9897C97.0819 54.5107 97.2113 53.9281 97.2113 53.2419C97.2113 52.2192 96.9394 51.4359 96.3957 50.8922C95.8649 50.3355 95.2111 50.0572 94.4343 50.0572C93.6576 50.0572 93.0038 50.3355 92.473 50.8922C91.9551 51.4359 91.6962 52.2192 91.6962 53.2419C91.6962 54.2647 91.9487 55.0544 92.4536 55.6111C92.9714 56.1548 93.6187 56.4267 94.3955 56.4267ZM111.368 45.0664C112.792 45.0664 114.041 45.3447 115.116 45.9014C116.203 46.4581 117.038 47.2543 117.621 48.29C118.216 49.3128 118.514 50.5038 118.514 51.8632C118.514 53.2225 118.216 54.4136 117.621 55.4363C117.038 56.4461 116.203 57.2294 115.116 57.7861C114.041 58.3427 112.792 58.6211 111.368 58.6211H106.629V45.0664H111.368ZM111.27 56.3102C112.695 56.3102 113.795 55.9218 114.572 55.145C115.349 54.3683 115.737 53.2743 115.737 51.8632C115.737 50.452 115.349 49.3516 114.572 48.5619C113.795 47.7592 112.695 47.3579 111.27 47.3579H109.348V56.3102H111.27ZM128.453 45.0664V54.5819C128.453 55.9024 128.071 56.9316 127.307 57.6695C126.543 58.3945 125.52 58.757 124.239 58.757C122.944 58.757 121.895 58.3816 121.093 57.6307C120.303 56.8798 119.908 55.8312 119.908 54.4848H122.627C122.64 55.0674 122.776 55.5205 123.035 55.8441C123.307 56.1678 123.695 56.3296 124.2 56.3296C124.692 56.3296 125.067 56.1743 125.326 55.8635C125.585 55.5528 125.715 55.1256 125.715 54.5819V45.0664H128.453ZM146.136 49.261C146.136 49.986 145.961 50.6656 145.611 51.3C145.275 51.9344 144.738 52.4457 144 52.8341C143.275 53.2225 142.355 53.4167 141.242 53.4167H138.97V58.6211H136.251V45.0664H141.242C142.291 45.0664 143.184 45.2476 143.922 45.6101C144.66 45.9726 145.21 46.4711 145.573 47.1054C145.948 47.7398 146.136 48.4583 146.136 49.261ZM141.126 51.2223C141.876 51.2223 142.433 51.054 142.796 50.7174C143.158 50.3679 143.339 49.8824 143.339 49.261C143.339 47.9404 142.601 47.2802 141.126 47.2802H138.97V51.2223H141.126ZM150.785 49.5328C151.134 48.9632 151.587 48.5166 152.144 48.1929C152.714 47.8692 153.361 47.7074 154.086 47.7074V50.5621H153.368C152.513 50.5621 151.866 50.7627 151.426 51.1641C150.998 51.5654 150.785 52.2645 150.785 53.2614V58.6211H148.066V47.8628H150.785V49.5328ZM160.694 58.7959C159.659 58.7959 158.727 58.5693 157.898 58.1162C157.069 57.6501 156.416 56.9963 155.937 56.1548C155.471 55.3133 155.238 54.3424 155.238 53.2419C155.238 52.1415 155.477 51.1705 155.956 50.329C156.448 49.4875 157.115 48.8402 157.956 48.3871C158.798 47.921 159.736 47.688 160.772 47.688C161.808 47.688 162.746 47.921 163.588 48.3871C164.429 48.8402 165.09 49.4875 165.569 50.329C166.061 51.1705 166.307 52.1415 166.307 53.2419C166.307 54.3424 166.054 55.3133 165.549 56.1548C165.057 56.9963 164.384 57.6501 163.53 58.1162C162.688 58.5693 161.743 58.7959 160.694 58.7959ZM160.694 56.4267C161.186 56.4267 161.646 56.3102 162.073 56.0772C162.513 55.8312 162.863 55.4687 163.122 54.9897C163.381 54.5107 163.51 53.9281 163.51 53.2419C163.51 52.2192 163.238 51.4359 162.695 50.8922C162.164 50.3355 161.51 50.0572 160.733 50.0572C159.956 50.0572 159.303 50.3355 158.772 50.8922C158.254 51.4359 157.995 52.2192 157.995 53.2419C157.995 54.2647 158.248 55.0544 158.752 55.6111C159.27 56.1548 159.918 56.4267 160.694 56.4267Z"
        fill="#E8B840" />
</svg>