<svg width="146" height="55" viewBox="0 0 146 55" fill="none" xmlns="http://www.w3.org/2000/svg">
    <path
        d="M21.1512 24.744H10.0457L8.26548 30H0.678194L11.4445 0.244257H19.8372L30.6035 30H22.9314L21.1512 24.744ZM19.2861 19.1489L15.5985 8.25542L11.9532 19.1489H19.2861ZM45.028 0.244257C48.1647 0.244257 50.9057 0.865934 53.2511 2.10929C55.5965 3.35264 57.405 5.10464 58.6767 7.36529C59.9765 9.59768 60.6265 12.1833 60.6265 15.1221C60.6265 18.0327 59.9765 20.6183 58.6767 22.879C57.405 25.1396 55.5824 26.8916 53.2087 28.135C50.8633 29.3783 48.1364 30 45.028 30H33.8802V0.244257H45.028ZM44.5618 23.7267C47.3028 23.7267 49.4363 22.9779 50.9622 21.4802C52.4881 19.9825 53.2511 17.8632 53.2511 15.1221C53.2511 12.3811 52.4881 10.2476 50.9622 8.72168C49.4363 7.19574 47.3028 6.43277 44.5618 6.43277H41.1284V23.7267H44.5618ZM98.3748 0.244257V30H91.1266V12.155L84.4719 30H78.6224L71.9253 12.1126V30H64.6771V0.244257H73.2393L81.5895 20.8444L89.855 0.244257H98.3748ZM110.835 0.244257V30H103.587V0.244257H110.835ZM142.707 30H135.459L123.336 11.6464V30H116.088V0.244257H123.336L135.459 18.6826V0.244257H142.707V30Z"
        fill="#1B1B1B" />
    <path
        d="M6.47816 53.2619C5.40121 53.2619 4.41218 53.0091 3.51106 52.5036C2.60995 51.9981 1.89565 51.3003 1.36816 50.4102C0.840677 49.509 0.576935 48.4925 0.576935 47.3606C0.576935 46.2397 0.840677 45.2342 1.36816 44.3441C1.89565 43.443 2.60995 42.7397 3.51106 42.2342C4.41218 41.7287 5.40121 41.4759 6.47816 41.4759C7.5661 41.4759 8.55513 41.7287 9.44526 42.2342C10.3464 42.7397 11.0552 43.443 11.5717 44.3441C12.0992 45.2342 12.3629 46.2397 12.3629 47.3606C12.3629 48.4925 12.0992 49.509 11.5717 50.4102C11.0552 51.3003 10.3464 51.9981 9.44526 52.5036C8.54414 53.0091 7.55511 53.2619 6.47816 53.2619ZM6.47816 51.2014C7.17048 51.2014 7.78039 51.0475 8.30787 50.7398C8.83535 50.4212 9.24745 49.9706 9.54416 49.3882C9.84087 48.8057 9.98923 48.1299 9.98923 47.3606C9.98923 46.5914 9.84087 45.9211 9.54416 45.3496C9.24745 44.7672 8.83535 44.3221 8.30787 44.0144C7.78039 43.7067 7.17048 43.5529 6.47816 43.5529C5.78584 43.5529 5.17044 43.7067 4.63197 44.0144C4.10448 44.3221 3.69239 44.7672 3.39568 45.3496C3.09897 45.9211 2.95061 46.5914 2.95061 47.3606C2.95061 48.1299 3.09897 48.8057 3.39568 49.3882C3.69239 49.9706 4.10448 50.4212 4.63197 50.7398C5.17044 51.0475 5.78584 51.2014 6.47816 51.2014ZM19.1403 43.8825C20.2283 43.8825 21.1074 44.2287 21.7778 44.921C22.4481 45.6024 22.7833 46.5584 22.7833 47.7892V53.1465H20.4755V48.1024C20.4755 47.3771 20.2942 46.8222 19.9316 46.4375C19.5689 46.0419 19.0744 45.8441 18.448 45.8441C17.8106 45.8441 17.3051 46.0419 16.9315 46.4375C16.5689 46.8222 16.3875 47.3771 16.3875 48.1024V53.1465H14.0798V44.0144H16.3875V45.1518C16.6952 44.7562 17.0854 44.4485 17.5579 44.2287C18.0414 43.9979 18.5689 43.8825 19.1403 43.8825ZM36.7355 41.6407V43.5034H33.6695V53.1465H31.3617V43.5034H28.2957V41.6407H36.7355ZM43.5622 43.8825C44.2546 43.8825 44.87 44.0364 45.4084 44.3441C45.9469 44.6408 46.3645 45.0859 46.6612 45.6793C46.9689 46.2617 47.1227 46.965 47.1227 47.7892V53.1465H44.815V48.1024C44.815 47.3771 44.6337 46.8222 44.271 46.4375C43.9084 46.0419 43.4139 45.8441 42.7875 45.8441C42.1501 45.8441 41.6446 46.0419 41.271 46.4375C40.9083 46.8222 40.727 47.3771 40.727 48.1024V53.1465H38.4193V40.9484H40.727V45.1518C41.0237 44.7562 41.4193 44.4485 41.9138 44.2287C42.4084 43.9979 42.9578 43.8825 43.5622 43.8825ZM57.8065 48.3826C57.8065 48.7123 57.7845 49.009 57.7405 49.2728H51.0646C51.1195 49.9321 51.3503 50.4486 51.7569 50.8223C52.1635 51.1959 52.6635 51.3827 53.2569 51.3827C54.1141 51.3827 54.724 51.0146 55.0866 50.2783H57.5757C57.312 51.1574 56.8065 51.8827 56.0592 52.4542C55.3119 53.0146 54.3943 53.2948 53.3064 53.2948C52.4272 53.2948 51.636 53.1025 50.9327 52.7179C50.2404 52.3223 49.6964 51.7673 49.3008 51.053C48.9162 50.3387 48.7239 49.5145 48.7239 48.5805C48.7239 47.6354 48.9162 46.8057 49.3008 46.0914C49.6854 45.3771 50.2239 44.8276 50.9162 44.443C51.6086 44.0584 52.4053 43.8661 53.3064 43.8661C54.1745 43.8661 54.9493 44.0529 55.6306 44.4265C56.3229 44.8002 56.8559 45.3331 57.2295 46.0255C57.6142 46.7068 57.8065 47.4925 57.8065 48.3826ZM55.4163 47.7233C55.4053 47.1299 55.191 46.6573 54.7735 46.3057C54.3559 45.943 53.8449 45.7617 53.2405 45.7617C52.669 45.7617 52.1855 45.9375 51.7899 46.2892C51.4052 46.6299 51.169 47.1079 51.0811 47.7233H55.4163ZM71.4299 45.1024C71.1661 44.6188 70.8035 44.2507 70.342 43.9979C69.8804 43.7452 69.3419 43.6188 68.7265 43.6188C68.0452 43.6188 67.4408 43.7727 66.9133 44.0804C66.3858 44.3881 65.9737 44.8276 65.677 45.3991C65.3803 45.9705 65.232 46.6299 65.232 47.3771C65.232 48.1464 65.3803 48.8167 65.677 49.3882C65.9847 49.9596 66.4078 50.3992 66.9463 50.7069C67.4848 51.0146 68.1111 51.1684 68.8254 51.1684C69.7046 51.1684 70.4244 50.9376 70.9848 50.4761C71.5453 50.0036 71.9134 49.3497 72.0892 48.5145H68.1331V46.7507H74.364V48.7618C74.2102 49.564 73.8805 50.3058 73.375 50.9871C72.8695 51.6684 72.2156 52.2179 71.4134 52.6355C70.6222 53.0421 69.7321 53.2454 68.743 53.2454C67.6331 53.2454 66.6276 52.9981 65.7265 52.5036C64.8363 51.9981 64.133 51.3003 63.6165 50.4102C63.111 49.52 62.8583 48.509 62.8583 47.3771C62.8583 46.2452 63.111 45.2342 63.6165 44.3441C64.133 43.443 64.8363 42.7452 65.7265 42.2506C66.6276 41.7451 67.6276 41.4924 68.7265 41.4924C70.0233 41.4924 71.1497 41.8111 72.1057 42.4485C73.0618 43.0748 73.7211 43.9595 74.0838 45.1024H71.4299ZM80.1264 53.2948C79.2473 53.2948 78.4561 53.1025 77.7527 52.7179C77.0494 52.3223 76.4945 51.7673 76.0879 51.053C75.6923 50.3387 75.4944 49.5145 75.4944 48.5805C75.4944 47.6464 75.6978 46.8222 76.1044 46.1079C76.5219 45.3936 77.0879 44.8441 77.8022 44.4595C78.5165 44.0639 79.3132 43.8661 80.1924 43.8661C81.0715 43.8661 81.8682 44.0639 82.5825 44.4595C83.2968 44.8441 83.8573 45.3936 84.2639 46.1079C84.6815 46.8222 84.8903 47.6464 84.8903 48.5805C84.8903 49.5145 84.676 50.3387 84.2474 51.053C83.8298 51.7673 83.2584 52.3223 82.5331 52.7179C81.8188 53.1025 81.0165 53.2948 80.1264 53.2948ZM80.1264 51.2838C80.544 51.2838 80.9341 51.1849 81.2968 50.9871C81.6704 50.7783 81.9671 50.4706 82.1869 50.064C82.4067 49.6574 82.5166 49.1629 82.5166 48.5805C82.5166 47.7123 82.2858 47.0475 81.8243 46.5859C81.3737 46.1134 80.8187 45.8771 80.1594 45.8771C79.5 45.8771 78.9451 46.1134 78.4945 46.5859C78.0549 47.0475 77.8352 47.7123 77.8352 48.5805C77.8352 49.4486 78.0494 50.1189 78.478 50.5915C78.9176 51.053 79.4671 51.2838 80.1264 51.2838ZM94.5329 41.6407C95.7418 41.6407 96.8022 41.877 97.7143 42.3495C98.6374 42.8221 99.3462 43.4979 99.8407 44.3771C100.346 45.2452 100.599 46.2562 100.599 47.4101C100.599 48.564 100.346 49.575 99.8407 50.4431C99.3462 51.3003 98.6374 51.9651 97.7143 52.4377C96.8022 52.9102 95.7418 53.1465 94.5329 53.1465H90.5109V41.6407H94.5329ZM94.4505 51.1849C95.6593 51.1849 96.5934 50.8552 97.2528 50.1959C97.9121 49.5365 98.2418 48.6079 98.2418 47.4101C98.2418 46.2123 97.9121 45.2782 97.2528 44.6078C96.5934 43.9265 95.6593 43.5858 94.4505 43.5858H92.8186V51.1849H94.4505ZM109.035 41.6407V49.7178C109.035 50.8387 108.711 51.7124 108.063 52.3388C107.414 52.9542 106.546 53.2619 105.458 53.2619C104.359 53.2619 103.469 52.9432 102.788 52.3058C102.118 51.6684 101.782 50.7783 101.782 49.6354H104.09C104.101 50.1299 104.217 50.5146 104.436 50.7893C104.667 51.064 104.997 51.2014 105.425 51.2014C105.843 51.2014 106.162 51.0695 106.381 50.8058C106.601 50.542 106.711 50.1794 106.711 49.7178V41.6407H109.035ZM124.045 45.2013C124.045 45.8167 123.897 46.3936 123.6 46.9321C123.315 47.4705 122.859 47.9046 122.232 48.2343C121.617 48.564 120.837 48.7288 119.892 48.7288H117.963V53.1465H115.655V41.6407H119.892C120.782 41.6407 121.54 41.7946 122.166 42.1023C122.793 42.41 123.26 42.8331 123.567 43.3715C123.886 43.91 124.045 44.5199 124.045 45.2013ZM119.793 46.8661C120.43 46.8661 120.903 46.7233 121.21 46.4375C121.518 46.1408 121.672 45.7287 121.672 45.2013C121.672 44.0804 121.045 43.5199 119.793 43.5199H117.963V46.8661H119.793ZM127.992 45.432C128.288 44.9485 128.673 44.5694 129.146 44.2946C129.629 44.0199 130.179 43.8825 130.794 43.8825V46.3057H130.184C129.459 46.3057 128.909 46.476 128.536 46.8167C128.173 47.1573 127.992 47.7508 127.992 48.5969V53.1465H125.684V44.0144H127.992V45.432ZM136.403 53.2948C135.524 53.2948 134.733 53.1025 134.03 52.7179C133.326 52.3223 132.771 51.7673 132.365 51.053C131.969 50.3387 131.771 49.5145 131.771 48.5805C131.771 47.6464 131.975 46.8222 132.381 46.1079C132.799 45.3936 133.365 44.8441 134.079 44.4595C134.793 44.0639 135.59 43.8661 136.469 43.8661C137.348 43.8661 138.145 44.0639 138.859 44.4595C139.574 44.8441 140.134 45.3936 140.541 46.1079C140.958 46.8222 141.167 47.6464 141.167 48.5805C141.167 49.5145 140.953 50.3387 140.524 51.053C140.107 51.7673 139.535 52.3223 138.81 52.7179C138.096 53.1025 137.294 53.2948 136.403 53.2948ZM136.403 51.2838C136.821 51.2838 137.211 51.1849 137.574 50.9871C137.947 50.7783 138.244 50.4706 138.464 50.064C138.684 49.6574 138.794 49.1629 138.794 48.5805C138.794 47.7123 138.563 47.0475 138.101 46.5859C137.651 46.1134 137.096 45.8771 136.436 45.8771C135.777 45.8771 135.222 46.1134 134.771 46.5859C134.332 47.0475 134.112 47.7123 134.112 48.5805C134.112 49.4486 134.326 50.1189 134.755 50.5915C135.195 51.053 135.744 51.2838 136.403 51.2838Z"
        fill="#E8B840" />
</svg>